HIERARCHY
ROOT Hips
{
	OFFSET -3.958830 18.904000 13.208200
	CHANNELS 6 Xposition Yposition Zposition Zrotation Yrotation Xrotation 
	JOINT LHipJoint
	{
		OFFSET 0.000000 0.000000 0.000000
		CHANNELS 3 Zrotation Yrotation Xrotation
		JOINT LeftUpLeg
		{
			OFFSET 1.800000 -1.400000 0.085000
			CHANNELS 3 Zrotation Yrotation Xrotation
			JOINT LeftLeg
			{
				OFFSET 2.215000 -6.000000 0.000000
				CHANNELS 3 Zrotation Yrotation Xrotation
				JOINT LeftFoot
				{
					OFFSET 2.500000 -6.900000 0.000000
					CHANNELS 3 Zrotation Yrotation Xrotation
					JOINT LeftToeBase
					{
						OFFSET 0.200000 -0.500000 1.950000
						CHANNELS 3 Zrotation Yrotation Xrotation
						End Site
						{
							OFFSET 0.000000 0.000000 0.000000
						}
					}
				}
			}
		}
	}
	JOINT RHipJoint
	{
		OFFSET 0.000000 0.000000 0.000000
		CHANNELS 3 Zrotation Yrotation Xrotation
		JOINT RightUpLeg
		{
			OFFSET -1.800000 -1.400000 0.085000
			CHANNELS 3 Zrotation Yrotation Xrotation
			JOINT RightLeg
			{
				OFFSET -2.215000 -6.000000 0.000000
				CHANNELS 3 Zrotation Yrotation Xrotation
				JOINT RightFoot
				{
					OFFSET -2.500000 -6.900000 0.000000
					CHANNELS 3 Zrotation Yrotation Xrotation
					JOINT RightToeBase
					{
						OFFSET -0.200000 -0.500000 1.950000
						CHANNELS 3 Zrotation Yrotation Xrotation
						End Site
						{
							OFFSET 0.000000 0.000000 0.000000
						}
					}
				}
			}
		}
	}
	JOINT LowerBack
	{
		OFFSET 0.000000 0.000000 0.000000
		CHANNELS 3 Zrotation Yrotation Xrotation
		JOINT Spine
		{
			OFFSET -0.087000 1.940000 -0.288900
			CHANNELS 3 Zrotation Yrotation Xrotation
			JOINT Spine1
			{
				OFFSET 0.000000 1.950000 0.060000
				CHANNELS 3 Zrotation Yrotation Xrotation
				JOINT Neck
				{
					OFFSET 0.000000 0.000000 0.000000
					CHANNELS 3 Zrotation Yrotation Xrotation
					JOINT Neck1
					{
						OFFSET 0.000000 1.600000 0.340000
						CHANNELS 3 Zrotation Yrotation Xrotation
						JOINT Head
						{
							OFFSET 0.000000 1.667000 -0.240000
							CHANNELS 3 Zrotation Yrotation Xrotation
							End Site
							{
								OFFSET 0.000000 0.000000 0.000000
							}
						}
					}
				}
				JOINT LeftShoulder
				{
					OFFSET 0.000000 0.000000 0.000000
					CHANNELS 3 Zrotation Yrotation Xrotation
					JOINT LeftArm
					{
						OFFSET 2.700000 1.550000 -0.730000
						CHANNELS 3 Zrotation Yrotation Xrotation
						JOINT LeftForeArm
						{
							OFFSET 5.450000 0.000000 0.000000
							CHANNELS 3 Zrotation Yrotation Xrotation
							JOINT LeftHand
							{
								OFFSET 3.450000 0.000000 0.000000
								CHANNELS 3 Zrotation Yrotation Xrotation
								JOINT LeftHandIndex1
								{
									OFFSET 0.750000 0.000000 0.000000
									CHANNELS 3 Zrotation Yrotation Xrotation
									End Site
									{
										OFFSET 0.000000 0.000000 0.000000
									}
								}
							}
						}
					}
				}
				JOINT RightShoulder
				{
					OFFSET 0.000000 0.000000 0.000000
					CHANNELS 3 Zrotation Yrotation Xrotation
					JOINT RightArm
					{
						OFFSET -2.700000 1.550000 -0.730000
						CHANNELS 3 Zrotation Yrotation Xrotation
						JOINT RightForeArm
						{
							OFFSET -5.450000 0.000000 0.000000
							CHANNELS 3 Zrotation Yrotation Xrotation
							JOINT RightHand
							{
								OFFSET -3.450000 0.000000 0.000000
								CHANNELS 3 Zrotation Yrotation Xrotation
								JOINT RightHandIndex1
								{
									OFFSET -0.750000 0.000000 0.000000
									CHANNELS 3 Zrotation Yrotation Xrotation
									End Site
									{
										OFFSET 0.000000 0.000000 0.000000
									}
								}
							}
						}
					}
				}
			}
		}
	}
}
MOTION
Frames: 8
Frame Time: 0.016667
1.938010 17.132450 -2.082990 -0.938580 8.598002 8.064115 -15.081375 13.104280 2.922801 7.299879 -1.092548 -3.628359 -9.242756 4.655016 -0.184431 -0.588854 4.893024 3.214784 0.201960 -0.411710 0.140310 18.623481 -9.161139 3.485331 9.853114 5.997276 -36.428880 4.336430 -6.819427 28.462918 -0.042494 -3.414810 3.505180 -0.135260 0.583450 0.160960 -4.285116 -3.794198 -7.481008 21.124330 -16.154899 16.092507 -16.813428 -11.915761 11.757886 3.679863 -10.166884 -14.537424 -29.293107 18.018954 33.543405 -1.990370 9.272310 1.233760 -13.862875 -10.059856 4.150636 -29.287474 -10.829726 -8.660594 71.080137 -57.354081 -43.598841 -3.810851 1.870615 0.720610 0.331370 -0.365090 0.174960 6.845984 10.905383 12.150951 35.094363 -15.818242 -10.390493 91.433363 42.386830 28.237921 1.595675 -1.929897 -0.482030 0.328100 0.224180 -0.370350 
1.971680 17.100480 -1.928280 0.350728 8.888580 7.758387 -15.108294 13.319338 2.857876 6.382924 -0.839697 -3.064620 -8.908236 5.075702 2.020626 -0.571731 4.919256 3.194308 0.177600 -0.445320 0.153160 18.587903 -9.269950 3.261148 9.656830 4.959132 -30.713190 5.642851 -5.057654 17.878979 0.155605 -2.270590 3.948602 -0.168000 0.581550 0.154290 -4.213773 -3.994504 -7.268053 20.466559 -15.524115 12.112945 -16.565734 -12.052340 13.299862 3.406773 -9.643347 -15.256916 -30.130732 19.058462 38.031910 -2.006270 9.218350 3.531110 -11.438229 -9.968093 4.646954 -25.758754 -8.709991 -7.856807 55.588329 -56.514853 -31.794452 -3.764334 2.144826 0.721340 0.330800 -0.359600 0.152210 4.868205 10.856275 12.485133 31.672031 -15.150086 -8.124877 96.450620 43.510198 32.830784 1.615824 -1.943909 -0.477740 0.327990 0.234650 -0.370750 
1.993460 17.060500 -1.758590 1.235258 7.497801 7.498727 -15.109897 13.408360 2.713919 5.714479 -0.678174 -2.687287 -8.284685 5.501672 4.970655 -0.587301 4.954745 3.133048 0.155030 -0.485810 0.146650 18.596925 -9.331469 3.226520 10.035608 4.476318 -25.645888 5.370947 -3.696388 10.016177 0.212298 -1.881672 4.106182 -0.200010 0.566920 0.172410 -4.213375 -3.980648 -7.117120 20.111501 -13.989253 8.753982 -16.255703 -11.202098 13.919417 3.127442 -9.067699 -16.007977 -31.204319 20.337799 43.062196 -1.142200 8.492620 5.864170 -10.210508 -10.164888 4.862314 -20.509548 -6.561393 -6.258784 39.260031 -55.941284 -21.226586 -3.756815 2.428014 0.742850 0.323850 -0.350590 0.114010 4.161717 11.155779 13.134167 27.339993 -15.957215 -5.740385 102.059787 42.740546 36.418389 1.637477 -1.949289 -0.465060 0.294620 0.268050 -0.375490 
1.996330 17.030580 -1.605550 1.246370 3.636569 6.984051 -15.050224 13.391062 2.607014 5.836244 -0.819788 -2.859918 -8.806279 6.210879 8.966709 -0.557210 5.044074 3.034763 0.230500 -0.419790 0.251090 18.644435 -9.446213 3.362753 11.812044 4.383875 -21.941732 3.706809 -2.998756 6.437342 0.111829 -1.808993 4.124125 -0.208940 0.421290 0.173470 -4.324654 -3.650067 -7.147537 19.971793 -11.639236 7.668104 -15.949223 -9.273414 13.369003 3.501852 -8.009129 -16.864869 -30.838453 21.181197 49.970115 -2.196870 9.068520 5.687130 -10.990787 -11.412566 4.989210 -13.291727 -3.610001 -4.771549 23.945516 -56.340713 -12.452108 -3.658143 2.645486 0.835180 0.225500 -0.235050 0.101490 4.209105 12.465818 14.064673 23.430631 -16.814984 -3.954435 105.776234 42.212136 39.319389 1.711775 -1.927002 -0.415120 0.253220 0.208170 -0.411340 
1.974700 17.036620 -1.485570 1.661649 0.132299 6.015891 -14.988100 13.397738 2.635607 6.956109 -1.508913 -4.543912 -11.380747 7.821846 15.122349 -0.413531 5.505177 2.779279 0.357070 -0.261260 0.353230 18.653486 -9.601904 3.433516 12.481910 3.998446 -19.303733 2.561249 -2.849752 6.005630 -0.036533 -1.828567 4.096493 -0.188630 0.249080 0.160370 -4.381640 -3.399977 -7.295872 18.635354 -9.758765 8.773933 -14.488534 -7.710879 11.481248 3.566771 -7.322792 -17.797813 -32.023587 22.628962 56.360805 -2.274950 8.772680 4.162600 -13.899369 -13.098464 5.291552 -5.658369 0.546796 -3.197834 8.982681 -57.329041 -4.456964 -3.520080 2.868918 0.919930 0.082110 -0.080200 0.120520 7.189092 14.431073 14.879426 18.376489 -18.003609 -2.413598 108.753706 42.713639 43.276545 1.852681 -1.887760 -0.322530 0.227960 0.109470 -0.409480 
1.942240 17.050970 -1.419550 1.980952 -2.309708 4.975547 -14.977898 13.384591 2.843087 9.016388 -2.942616 -8.753381 -13.917190 10.274270 23.624180 -0.163287 6.521067 2.342064 0.440610 -0.162250 0.441290 18.598682 -9.666026 3.476044 12.924332 3.792038 -17.908806 1.549998 -2.846268 7.572194 -0.123398 -1.846906 4.104747 -0.196180 0.139180 0.132900 -4.272701 -3.355311 -7.600353 16.551634 -8.403565 11.436638 -12.110117 -6.396634 9.184866 3.530584 -6.703912 -18.447704 -32.305332 23.039121 61.334598 -2.822730 8.422010 4.224190 -16.411371 -14.330340 5.312294 1.069338 3.035512 -1.225088 -6.291177 -56.879025 3.779900 -3.427392 3.054532 0.951200 -0.010140 0.015150 0.142950 10.035511 15.915961 15.562035 13.814818 -19.704145 -1.137339 113.255744 44.608029 50.338471 1.991292 -1.863295 -0.250660 0.219030 0.018810 -0.399620 
1.920510 17.070520 -1.371960 2.256359 -5.951878 3.787809 -15.035173 13.045842 3.386399 12.199511 -4.579664 -13.475345 -18.505309 14.350667 31.910082 0.141396 8.493245 1.626950 0.439960 -0.185240 0.462980 18.542677 -9.585206 3.334728 12.389736 3.521709 -16.577508 2.019107 -3.203951 10.057627 -0.175282 -1.998356 4.048084 -0.173080 0.138690 0.072220 -4.084553 -3.210048 -7.925802 14.667842 -7.019900 14.429014 -10.252943 -4.642250 8.190363 3.354805 -6.791727 -18.526998 -33.907505 23.654473 62.828690 -2.679780 7.161900 2.712710 -17.019888 -14.371598 5.285534 4.001673 4.678894 0.010848 -17.831778 -57.086563 9.694982 -3.411643 3.051397 1.024640 -0.055660 0.021030 0.146960 11.275684 16.680099 15.354953 11.001681 -18.707932 -0.779967 117.243239 47.205313 58.098424 2.044151 -1.761877 -0.327130 0.316050 0.026660 -0.429300 
1.884170 17.071730 -1.331310 2.369993 -10.077131 2.992452 -15.200726 12.570681 4.205976 17.023151 -5.416342 -19.075754 -23.610880 19.802417 39.076386 0.591941 10.724398 0.871355 0.427110 -0.226350 0.460020 18.435181 -9.305098 3.147917 12.180750 3.665839 -16.184363 1.831784 -3.493035 13.862117 -0.202173 -2.188767 3.972156 -0.165820 0.131200 0.030950 -3.708829 -3.216893 -8.383622 11.909628 -5.230009 17.353206 -7.699084 -2.397493 7.108918 3.292403 -6.889893 -18.853566 -34.782213 23.410501 63.678922 -2.806430 5.925400 3.255800 -17.031488 -14.181416 5.685904 4.999117 7.218215 0.817288 -30.357348 -57.767962 16.335537 -3.388599 3.085015 1.067380 -0.085320 0.010520 0.156320 11.758442 17.745545 15.204129 10.606363 -17.008926 -1.302560 118.647202 48.892516 61.749532 2.081227 -1.699963 -0.383900 0.347710 0.024850 -0.451150 
